<?xml version="1.0" encoding="UTF-8" standalone="no"?>
<svg
   xmlns:dc="http://purl.org/dc/elements/1.1/"
   xmlns:cc="http://creativecommons.org/ns#"
   xmlns:rdf="http://www.w3.org/1999/02/22-rdf-syntax-ns#"
   xmlns:svg="http://www.w3.org/2000/svg"
   xmlns="http://www.w3.org/2000/svg"
   height="238.85001"
   width="238.88756"
   id="svg839"
   xml:space="preserve"
   viewBox="0 0 238.88756 238.85"
   y="0px"
   x="0px"
   version="1.1"><metadata
     id="metadata845"><rdf:RDF><cc:Work
         rdf:about=""><dc:format>image/svg+xml</dc:format><dc:type
           rdf:resource="http://purl.org/dc/dcmitype/StillImage" /><dc:title></dc:title></cc:Work></rdf:RDF></metadata><defs
     id="defs843" /><style
     id="style831"
     type="text/css">
	.st0{fill:#CABEBC;}
	.st1{fill:none;stroke:#CABEBC;stroke-width:2;stroke-miterlimit:10;}
</style><g
     transform="translate(-117.925,-162.525)"
     style="fill:#ffffff"
     id="Ebene_1"><g
       style="fill:#ffffff"
       id="XMLID_391_"><path
         style="fill:#ffffff"
         d="m 224,168.3 c 7.3,-7.7 19.3,-7.7 26.7,0 7.3,7.7 21.7,11.6 31.9,8.6 10.2,-3 20.6,3 23.1,13.3 2.5,10.4 13,20.9 23.4,23.4 10.4,2.5 16.4,12.9 13.3,23.1 -3,10.2 0.8,24.6 8.6,31.9 7.8,7.3 7.7,19.3 0,26.7 -7.7,7.3 -11.6,21.7 -8.6,31.9 3,10.2 -3,20.6 -13.3,23.1 -10.4,2.5 -20.9,13 -23.4,23.4 -2.5,10.4 -12.9,16.4 -23.1,13.3 -10.2,-3 -24.6,0.8 -31.9,8.6 -7.3,7.7 -19.3,7.7 -26.7,0 -7.3,-7.7 -21.7,-11.6 -31.9,-8.6 -10.2,3 -20.6,-3 -23.1,-13.3 -2.5,-10.4 -13,-20.9 -23.4,-23.4 -10.4,-2.5 -16.4,-12.9 -13.3,-23.1 3,-10.2 -0.8,-24.6 -8.6,-31.9 -7.7,-7.3 -7.7,-19.3 0,-26.7 7.7,-7.4 11.6,-21.7 8.6,-31.9 -3,-10.2 3,-20.6 13.3,-23.1 10.4,-2.5 20.9,-13 23.4,-23.4 2.5,-10.4 12.9,-16.4 23.1,-13.3 10.1,3 24.5,-0.8 31.9,-8.6 z"
         class="st0"
         id="XMLID_402_" /></g></g><g
     transform="translate(-117.925,-162.525)"
     id="Ebene_1_Kopie"><g
       id="XMLID_392_"><path
         style="fill:none;stroke:#cabebc;stroke-width:2;stroke-miterlimit:10"
         d="m 223.6,165.4 c 7.5,-7.9 19.8,-7.9 27.4,0 7.5,7.9 22.3,11.9 32.7,8.8 10.5,-3.1 21.1,3.1 23.7,13.7 2.6,10.6 13.3,21.4 24,24 10.7,2.6 16.8,13.2 13.7,23.7 -3.1,10.5 0.8,25.2 8.8,32.7 8,7.5 7.9,19.8 0,27.4 -7.9,7.6 -11.9,22.3 -8.8,32.7 3.1,10.5 -3.1,21.1 -13.7,23.7 -10.6,2.6 -21.4,13.3 -24,24 -2.6,10.7 -13.2,16.8 -23.7,13.7 -10.5,-3.1 -25.2,0.8 -32.7,8.8 -7.5,7.9 -19.8,7.9 -27.4,0 -7.5,-7.9 -22.3,-11.9 -32.7,-8.8 -10.5,3.1 -21.1,-3.1 -23.7,-13.7 -2.6,-10.6 -13.3,-21.4 -24,-24 -10.7,-2.6 -16.8,-13.2 -13.7,-23.7 3.1,-10.5 -0.8,-25.2 -8.8,-32.7 -8,-7.5 -7.9,-19.8 0,-27.4 7.9,-7.6 11.9,-22.3 8.8,-32.7 -3.1,-10.5 3.1,-21.1 13.7,-23.7 10.6,-2.6 21.4,-13.3 24,-24 2.6,-10.6 13.2,-16.8 23.7,-13.7 10.5,3.1 25.2,-0.8 32.7,-8.8 z"
         class="st1"
         id="XMLID_404_" /></g></g></svg>